<svg width="18" height="24" viewBox="0 0 18 24" fill="none" xmlns="http://www.w3.org/2000/svg">
<path d="M12.7055 6.52503C12.7055 6.73128 12.6914 6.93753 12.6656 7.14144C12.6773 7.05941 12.689 6.97503 12.6984 6.893C12.6422 7.30081 12.5344 7.69691 12.3773 8.07659C12.4078 8.00159 12.4406 7.92659 12.4711 7.85159C12.314 8.22191 12.1125 8.56878 11.8664 8.88753C11.9156 8.82425 11.9648 8.76097 12.014 8.69769C11.7703 9.01175 11.4867 9.29534 11.1726 9.53909C11.2359 9.48987 11.2992 9.44066 11.3625 9.39144C11.0437 9.63519 10.6969 9.83909 10.3265 9.99612C10.4015 9.96566 10.4765 9.93284 10.5515 9.90237C10.1719 10.0594 9.77577 10.1672 9.36795 10.2235C9.44998 10.2118 9.53436 10.2 9.61639 10.1907C9.20623 10.2446 8.79373 10.2446 8.38358 10.1907C8.46561 10.2024 8.54998 10.2141 8.63201 10.2235C8.2242 10.1672 7.82811 10.0594 7.44842 9.90237C7.52342 9.93284 7.59842 9.96566 7.67342 9.99612C7.30311 9.83909 6.95623 9.63753 6.63748 9.39144C6.70076 9.44066 6.76404 9.48987 6.82732 9.53909C6.51326 9.29534 6.22967 9.01175 5.98592 8.69769C6.03514 8.76097 6.08436 8.82425 6.13357 8.88753C5.88982 8.56878 5.68592 8.22191 5.52889 7.85159C5.55936 7.92659 5.59217 8.00159 5.62264 8.07659C5.4656 7.69691 5.35779 7.30081 5.30154 6.893C5.31326 6.97503 5.32498 7.05941 5.33436 7.14144C5.28045 6.73128 5.28045 6.31878 5.33436 5.90863C5.32264 5.99066 5.31092 6.07503 5.30154 6.15706C5.35779 5.74925 5.4656 5.35316 5.62264 4.97347C5.59217 5.04847 5.55936 5.12347 5.52889 5.19847C5.68592 4.82816 5.88748 4.48128 6.13357 4.16253C6.08436 4.22581 6.03514 4.28909 5.98592 4.35238C6.22967 4.03831 6.51326 3.75472 6.82732 3.51097C6.76404 3.56019 6.70076 3.60941 6.63748 3.65863C6.95623 3.41488 7.30311 3.21097 7.67342 3.05394C7.59842 3.08441 7.52342 3.11722 7.44842 3.14769C7.82811 2.99066 8.2242 2.88284 8.63201 2.82659C8.54998 2.83831 8.46561 2.85003 8.38358 2.85941C8.79373 2.8055 9.20623 2.8055 9.61639 2.85941C9.53436 2.84769 9.44998 2.83597 9.36795 2.82659C9.77577 2.88284 10.1719 2.99066 10.5515 3.14769C10.4765 3.11722 10.4015 3.08441 10.3265 3.05394C10.6969 3.21097 11.0437 3.41253 11.3625 3.65863C11.2992 3.60941 11.2359 3.56019 11.1726 3.51097C11.4867 3.75472 11.7703 4.03831 12.014 4.35238C11.9648 4.28909 11.9156 4.22581 11.8664 4.16253C12.1101 4.48128 12.314 4.82816 12.4711 5.19847C12.4406 5.12347 12.4078 5.04847 12.3773 4.97347C12.5344 5.35316 12.6422 5.74925 12.6984 6.15706C12.6867 6.07503 12.675 5.99066 12.6656 5.90863C12.6914 6.11253 12.7031 6.31878 12.7055 6.52503C12.7078 7.01487 13.1344 7.48597 13.643 7.46253C14.1492 7.43909 14.5828 7.05003 14.5805 6.52503C14.5758 5.40238 14.2383 4.25394 13.5773 3.33988C13.3992 3.09378 13.2094 2.85238 12.9984 2.63441C12.7851 2.41409 12.5508 2.22425 12.307 2.03909C11.864 1.70159 11.3695 1.45316 10.8445 1.26097C8.72811 0.485188 6.17576 1.17659 4.74373 2.92034C4.54685 3.15941 4.35935 3.40784 4.19998 3.67503C4.0406 3.93988 3.91639 4.22113 3.80154 4.50706C3.58592 5.03675 3.47576 5.59925 3.43123 6.16878C3.34451 7.28441 3.63513 8.44925 4.21639 9.4055C4.77654 10.3289 5.62264 11.1211 6.6117 11.5688C6.90233 11.7 7.19998 11.8219 7.50936 11.9086C7.81639 11.993 8.12811 12.0399 8.44451 12.0774C9.02108 12.1453 9.60936 12.0985 10.1789 11.9836C12.3422 11.543 14.1539 9.67972 14.489 7.493C14.5383 7.17425 14.5758 6.8555 14.5758 6.53206C14.5781 6.04222 14.1422 5.57113 13.6383 5.59456C13.132 5.61097 12.7055 6.00003 12.7055 6.52503ZM15.8156 21.1805C15.3562 21.1805 14.8969 21.1805 14.4375 21.1805C13.343 21.1805 12.2508 21.1805 11.1562 21.1805C9.83905 21.1805 8.52186 21.1805 7.20232 21.1805C6.06561 21.1805 4.92889 21.1805 3.78982 21.1805C3.25779 21.1805 2.72576 21.1852 2.19373 21.1805C2.13513 21.1805 2.07654 21.1758 2.02029 21.1688C2.10232 21.1805 2.1867 21.1922 2.26873 21.2016C2.17498 21.1875 2.08591 21.1617 1.9992 21.1266C2.0742 21.1571 2.1492 21.1899 2.2242 21.2203C2.13045 21.1805 2.04373 21.1289 1.9617 21.0657C2.02498 21.1149 2.08826 21.1641 2.15154 21.2133C2.08123 21.1547 2.0156 21.0914 1.95935 21.0211C2.00857 21.0844 2.05779 21.1477 2.10701 21.211C2.04373 21.1289 1.99451 21.0422 1.95232 20.9485C1.98279 21.0235 2.0156 21.0985 2.04607 21.1735C2.01091 21.0868 1.98748 20.9953 1.97107 20.9039C1.98279 20.986 1.99451 21.0703 2.00388 21.1524C1.96638 20.8688 1.99216 20.5688 1.99216 20.2828C1.99216 19.9477 1.99216 19.6149 1.99216 19.2797C1.99216 19.0289 2.00623 18.7805 2.03904 18.5321C2.02732 18.6141 2.0156 18.6985 2.00623 18.7805C2.07185 18.3 2.19841 17.8289 2.38826 17.3813C2.35779 17.4563 2.32498 17.5313 2.29451 17.6063C2.47732 17.1797 2.7117 16.7789 2.99529 16.411C2.94607 16.4742 2.89685 16.5375 2.84763 16.6008C3.13123 16.2375 3.45701 15.9094 3.82264 15.6258C3.75935 15.675 3.69607 15.7242 3.63279 15.7735C4.00076 15.4899 4.40154 15.2555 4.8281 15.0727C4.7531 15.1032 4.6781 15.136 4.6031 15.1664C5.05076 14.9789 5.51951 14.85 6.00232 14.7844C5.92029 14.7961 5.83592 14.8078 5.75389 14.8172C6.10076 14.7727 6.44529 14.7703 6.79451 14.7703C7.22342 14.7703 7.65233 14.7703 8.08123 14.7703C9.08201 14.7703 10.0828 14.7703 11.0836 14.7703C11.4703 14.7703 11.8547 14.768 12.2414 14.8172C12.1594 14.8055 12.075 14.7938 11.993 14.7844C12.4734 14.85 12.9445 14.9766 13.3922 15.1664C13.3172 15.136 13.2422 15.1032 13.1672 15.0727C13.5937 15.2555 13.9945 15.4899 14.3625 15.7735C14.2992 15.7242 14.2359 15.675 14.1726 15.6258C14.5359 15.9094 14.864 16.2352 15.1476 16.6008C15.0984 16.5375 15.0492 16.4742 15 16.411C15.2836 16.7789 15.518 17.1797 15.7008 17.6063C15.6703 17.5313 15.6375 17.4563 15.607 17.3813C15.7945 17.8289 15.9234 18.2977 15.9891 18.7805C15.9773 18.6985 15.9656 18.6141 15.9562 18.5321C16.0008 18.886 16.0031 19.2375 16.0031 19.5938C16.0031 19.9805 16.0031 20.3672 16.0031 20.7539C16.0031 20.8875 16.0078 21.0211 15.9914 21.1524C16.0031 21.0703 16.0148 20.986 16.0242 20.9039C16.0101 20.9977 15.9844 21.0868 15.9492 21.1735C15.9797 21.0985 16.0125 21.0235 16.043 20.9485C16.0031 21.0422 15.9516 21.1289 15.8883 21.211C15.9375 21.1477 15.9867 21.0844 16.0359 21.0211C15.9773 21.0914 15.9141 21.1571 15.8437 21.2133C15.907 21.1641 15.9703 21.1149 16.0336 21.0657C15.9516 21.1289 15.8648 21.1782 15.7711 21.2203C15.8461 21.1899 15.9211 21.1571 15.9961 21.1266C15.9094 21.1617 15.818 21.1852 15.7266 21.2016C15.8086 21.1899 15.893 21.1782 15.975 21.1688C15.9234 21.1758 15.8695 21.1782 15.8156 21.1805C15.5742 21.1828 15.3258 21.2836 15.1523 21.4547C14.9906 21.6164 14.8664 21.8836 14.8781 22.118C14.9016 22.6196 15.2906 23.0625 15.8156 23.0555C16.7273 23.0414 17.5289 22.4461 17.7961 21.5719C17.9016 21.225 17.8781 20.8524 17.8781 20.4961C17.8781 19.6805 17.9039 18.8719 17.7633 18.0633C17.557 16.8797 16.9617 15.7664 16.1461 14.8922C15.3305 14.018 14.2336 13.3758 13.0734 13.0899C12.4078 12.9258 11.7375 12.9 11.0578 12.9C10.3594 12.9 9.66327 12.9 8.96483 12.9C8.27576 12.9 7.58904 12.9 6.89998 12.9C6.20389 12.9 5.51248 12.9328 4.83514 13.1133C3.68435 13.418 2.60154 14.0672 1.80232 14.9485C0.99607 15.8367 0.412476 16.9524 0.222632 18.143C0.0960691 18.9422 0.12185 19.7438 0.12185 20.55C0.12185 20.9203 0.100757 21.3071 0.23435 21.661C0.407788 22.1157 0.684351 22.4742 1.08982 22.7438C1.40623 22.9524 1.80701 23.0532 2.18201 23.0578C2.36482 23.0602 2.54763 23.0578 2.73045 23.0578C3.1992 23.0578 3.6656 23.0578 4.13435 23.0578C4.79998 23.0578 5.46326 23.0578 6.12889 23.0578C6.90233 23.0578 7.67576 23.0578 8.4492 23.0578C9.24373 23.0578 10.0359 23.0578 10.8305 23.0578C11.557 23.0578 12.2812 23.0578 13.0078 23.0578C13.5773 23.0578 14.1469 23.0578 14.714 23.0578C15.0398 23.0578 15.3656 23.0578 15.6914 23.0578C15.7336 23.0578 15.7758 23.0578 15.818 23.0578C16.3078 23.0578 16.7789 22.6266 16.7555 22.1203C16.732 21.6094 16.343 21.1805 15.8156 21.1805Z" fill="white"/>
</svg>
